<svg xmlns="http://www.w3.org/2000/svg" width="350.206" height="150.396" viewBox="0 0 350.206 150.396"><g transform="translate(45.645 -306.51)"><path d="M-27.173,441.214V416.826q0-.537-.056-1.652h4.816l.168,3.92a13.421,13.421,0,0,1,1.176-1.48,9.047,9.047,0,0,1,1.736-1.484,9.68,9.68,0,0,1,2.38-1.12,10.189,10.189,0,0,1,3.164-.448,9.527,9.527,0,0,1,5.012,1.2,8.134,8.134,0,0,1,3.108,3.5,16.544,16.544,0,0,1,3.836-3.276A10.362,10.362,0,0,1,3.8,414.558q5.04,0,7.448,3a12.454,12.454,0,0,1,2.412,8.032v15.624H8.615V425.982q0-3.641-1.428-5.348a5.124,5.124,0,0,0-4.172-1.708,6.457,6.457,0,0,0-2.884.644,7.675,7.675,0,0,0-2.3,1.708,7.486,7.486,0,0,0-1.512,2.492,8.527,8.527,0,0,0-.532,3v14.444h-5.04V425.982q0-3.641-1.428-5.348a5.057,5.057,0,0,0-4.116-1.708,6.308,6.308,0,0,0-3.472.9,7.1,7.1,0,0,0-2.268,2.324,9.942,9.942,0,0,0-1.232,3.276,19.14,19.14,0,0,0-.364,3.7v12.088ZM19.419,447.6a6.644,6.644,0,0,0,1.288.9,3.749,3.749,0,0,0,1.792.392,2.916,2.916,0,0,0,1.54-.392,3.827,3.827,0,0,0,1.176-1.2,11.859,11.859,0,0,0,1.008-1.96q.477-1.149,1.092-2.66l.672-1.68L16.339,415.174h5.768l8.4,19.656L37.9,415.174h5.488L32.971,440.542q-.728,1.791-1.484,3.948a23.858,23.858,0,0,1-1.876,4.088,11.268,11.268,0,0,1-2.744,3.22,6.377,6.377,0,0,1-4.088,1.288,9.028,9.028,0,0,1-3.3-.532,7.871,7.871,0,0,1-2.352-1.428Zm28.168-43.736h14a18.525,18.525,0,0,1,5.88.812,11.2,11.2,0,0,1,3.92,2.156,7.863,7.863,0,0,1,2.184,3.108,10.216,10.216,0,0,1,.672,3.668,7.37,7.37,0,0,1-.644,3.164,9.805,9.805,0,0,1-1.512,2.352,7.635,7.635,0,0,1-1.82,1.54,6.478,6.478,0,0,1-1.624.728,12.721,12.721,0,0,1,2.24.84,9.091,9.091,0,0,1,3.808,3.136,8.654,8.654,0,0,1,1.512,5.152,10.691,10.691,0,0,1-1.036,4.928,8.859,8.859,0,0,1-2.912,3.3,12.832,12.832,0,0,1-4.592,1.88,28.889,28.889,0,0,1-6.076.588h-14Zm13.72,30.852a16.558,16.558,0,0,0,2.016-.14,5.985,5.985,0,0,0,2.072-.64,4.406,4.406,0,0,0,1.6-1.456,4.648,4.648,0,0,0,.644-2.632,4.456,4.456,0,0,0-.616-2.464,4.4,4.4,0,0,0-1.568-1.484,6.473,6.473,0,0,0-2.072-.728,11.9,11.9,0,0,0-2.072-.2H55.819v9.744Zm-.5-15.9a7.955,7.955,0,0,0,1.876-.224,4.941,4.941,0,0,0,1.624-.7,3.661,3.661,0,0,0,1.148-1.288,4.063,4.063,0,0,0,.448-1.988,4.184,4.184,0,0,0-.448-2.044,3.548,3.548,0,0,0-1.176-1.288,4.808,4.808,0,0,0-1.652-.672,8.636,8.636,0,0,0-1.82-.2H55.819v8.4Zm20.384-3.864h8.064v15.12a5.289,5.289,0,0,0,1.092,3.528,3.99,3.99,0,0,0,3.22,1.288,4.833,4.833,0,0,0,2.184-.476,5.146,5.146,0,0,0,1.624-1.26,5.227,5.227,0,0,0,1.008-1.848,7.2,7.2,0,0,0,.336-2.184V414.95h8.008v26.264H99l-.224-2.8a9.837,9.837,0,0,1-3.388,2.492,10.281,10.281,0,0,1-4.4.98,9.573,9.573,0,0,1-7.168-2.688q-2.631-2.688-2.632-7.952Zm31.464-11.088h8.624v7.224h-8.624Zm.28,11.088H121v26.264h-8.064Zm14.224-11.088h8.064v37.352h-8.064Zm31.864,34.72a10.013,10.013,0,0,1-3.16,2.432,9.6,9.6,0,0,1-4.4.98,10.807,10.807,0,0,1-4.508-.948,10.6,10.6,0,0,1-3.64-2.716,13.2,13.2,0,0,1-2.436-4.256,16.577,16.577,0,0,1-.9-5.628,14.318,14.318,0,0,1,1.26-6.188,13.3,13.3,0,0,1,3.248-4.4,13.618,13.618,0,0,1,4.424-2.6,14.179,14.179,0,0,1,4.788-.868,13.5,13.5,0,0,1,2.968.252,21.514,21.514,0,0,1,2.184.644V403.862h8.008v37.352h-7.5Zm-.168-16.408a6.164,6.164,0,0,0-1.82-.728,11.129,11.129,0,0,0-2.436-.224,5.856,5.856,0,0,0-4.788,2.072,8.093,8.093,0,0,0-1.708,5.32,7.46,7.46,0,0,0,1.4,4.676,4.974,4.974,0,0,0,4.2,1.82,5.271,5.271,0,0,0,2.324-.476,4.637,4.637,0,0,0,2.552-3.108,8.518,8.518,0,0,0,.28-2.184Zm13.888-18.312h8.624v7.224h-8.624Zm.28,11.088h8.064v26.264h-8.064Zm14.28,0h7.728l.224,2.856a9.209,9.209,0,0,1,3.388-2.52,10.52,10.52,0,0,1,4.4-.952,9.662,9.662,0,0,1,7.2,2.688q2.661,2.688,2.66,7.952v16.24h-8.068v-15.12a5.189,5.189,0,0,0-1.092-3.472,3.779,3.779,0,0,0-3.052-1.288,5.445,5.445,0,0,0-2.352.476,4.966,4.966,0,0,0-1.68,1.26,5.259,5.259,0,0,0-1.008,1.82,7.151,7.151,0,0,0-.336,2.212v14.112h-8.008Zm35.732,29.624a14.478,14.478,0,0,0,3.332,1.484,13.454,13.454,0,0,0,3.892.532,6.091,6.091,0,0,0,4.312-1.456,5.678,5.678,0,0,0,1.568-4.368v-1.852a9.9,9.9,0,0,1-6.72,2.184,12.914,12.914,0,0,1-5.012-.924,10.249,10.249,0,0,1-3.724-2.6,11.707,11.707,0,0,1-2.328-3.976,15.027,15.027,0,0,1-.812-5.04,14.867,14.867,0,0,1,1.092-5.8,12.985,12.985,0,0,1,3.08-4.48,13.618,13.618,0,0,1,4.76-2.884,17.979,17.979,0,0,1,6.188-1.008,32.931,32.931,0,0,1,6.188.56,35.516,35.516,0,0,1,5.292,1.4v24.028q0,6.5-3.584,9.6t-9.8,3.108a25.145,25.145,0,0,1-6.16-.672,15.572,15.572,0,0,1-4.816-2.128Zm13.16-22.96a9.646,9.646,0,0,0-1.568-.42,12.172,12.172,0,0,0-2.072-.14,7.208,7.208,0,0,0-3.024.588,6.211,6.211,0,0,0-3.444,3.872,9.073,9.073,0,0,0-.42,2.772,6.964,6.964,0,0,0,1.372,4.528,4.875,4.875,0,0,0,4,1.68,5.52,5.52,0,0,0,3.808-1.2,4.831,4.831,0,0,0,1.344-3.78Zm16.632,11.48a10.342,10.342,0,0,0,3.388,1.96,11.611,11.611,0,0,0,4.06.784,8.455,8.455,0,0,0,2.968-.448,1.7,1.7,0,0,0,1.176-1.736,1.755,1.755,0,0,0-.252-.924,2.332,2.332,0,0,0-.924-.784,11.623,11.623,0,0,0-1.876-.756q-1.2-.393-3.052-.9a20.528,20.528,0,0,1-3-1.036,10.9,10.9,0,0,1-2.632-1.6,7.4,7.4,0,0,1-1.848-2.3,6.713,6.713,0,0,1-.7-3.136,6.644,6.644,0,0,1,.84-3.332,8.213,8.213,0,0,1,2.324-2.576,11.018,11.018,0,0,1,3.528-1.68,15.806,15.806,0,0,1,4.4-.588,20.49,20.49,0,0,1,5.88.756,16.611,16.611,0,0,1,4.648,2.212l-3.416,5.32a17.262,17.262,0,0,0-2.94-1.512,9.8,9.8,0,0,0-3.724-.672,5.187,5.187,0,0,0-2.688.532,1.623,1.623,0,0,0-.84,1.428q0,1.287,1.736,1.9t4.7,1.4a12.371,12.371,0,0,1,5.852,3.08,7.346,7.346,0,0,1,1.82,5.228,6.934,6.934,0,0,1-.98,3.752,8.162,8.162,0,0,1-2.632,2.6,12.513,12.513,0,0,1-3.748,1.54,18.334,18.334,0,0,1-4.284.5,22.849,22.849,0,0,1-6.664-.952,11.974,11.974,0,0,1-5.1-2.912Z" fill="#041b36"/><path d="M286.046,404.2h2.538l2.671,4.347,2.673-4.347h2.619l.408,10.341h-2.728l-.216-6.075-2.106,3.564h-1.323l-2.106-3.429-.189,5.94h-2.646Zm-7.533,2.509h-3.348V404.2H284.8v2.511h-3.349v7.83h-2.942Z" fill="#041b36"/><path d="M-41.645,456.906h-4V331.111l11.637-6.436h12.333l11.8,6.427v58.248l5.154-2.035V375.269L.97,371.653v-7.516H21.893v10.231h8.849l8.769-10.231h22.92v6.615h5.077v16.973l2.166-6.665h11.3V364.137h25.138l7.434,4.9V347.214l12.765-11.783,12.926,11.775v19.955l5.8,3.764V313.3l22.887-6.793,10.8,8.718v54.065H193.1v5.075h4.681v-14.19h19.693l4.413,4.413h3.729l7.082-7.082,16.271,16.271v16.512h55.59v4h-59.59V375.438L232.7,363.167l-5.424,5.425h-7.044l-4.413-4.413H201.783v14.19H189.1v-5.075H174.724V317.141l-7.678-6.2-18.01,5.346v62l-13.8-8.956V348.973l-8.908-8.115-8.783,8.107v27.5l-12.634-8.329H84.973v16.924H72.581l-3,9.231H63.508V374.752H58.431v-6.615H41.351l-8.769,10.231H17.893V368.138H4.97v5.714l-5.692,3.615v12.569l-13.154,5.194V333.479l-8.817-4.8H-32.976l-8.669,4.794Z" fill="#041b36"/></g></svg>