<svg xmlns="http://www.w3.org/2000/svg" width="93.142" height="40" viewBox="0 0 93.142 40"><g transform="translate(45.645 -306.51)"><g transform="translate(-40.747 332.401)"><path d="M-27.214,413.793v-6.486q0-.143-.015-.439h1.281l.045,1.043a3.57,3.57,0,0,1,.313-.394,2.406,2.406,0,0,1,.462-.395,2.574,2.574,0,0,1,.633-.3,2.709,2.709,0,0,1,.842-.119,2.534,2.534,0,0,1,1.333.319,2.163,2.163,0,0,1,.827.931,4.4,4.4,0,0,1,1.02-.871,2.756,2.756,0,0,1,1.5-.38,2.388,2.388,0,0,1,1.981.8,3.312,3.312,0,0,1,.642,2.136v4.155H-17.7v-4.051a2.194,2.194,0,0,0-.38-1.422,1.363,1.363,0,0,0-1.11-.454,1.717,1.717,0,0,0-.767.171,2.041,2.041,0,0,0-.612.454,1.991,1.991,0,0,0-.4.663,2.268,2.268,0,0,0-.141.8v3.842h-1.34v-4.051a2.194,2.194,0,0,0-.38-1.422,1.345,1.345,0,0,0-1.095-.454,1.678,1.678,0,0,0-.923.239,1.889,1.889,0,0,0-.6.618,2.644,2.644,0,0,0-.328.871,5.091,5.091,0,0,0-.1.984v3.215Zm12.392,1.7a1.767,1.767,0,0,0,.343.239,1,1,0,0,0,.477.1.775.775,0,0,0,.41-.1,1.018,1.018,0,0,0,.313-.319,3.154,3.154,0,0,0,.268-.521q.127-.306.29-.707l.179-.447-3.1-6.868h1.534l2.234,5.228,1.966-5.228h1.46l-2.77,6.747q-.193.476-.395,1.05a6.346,6.346,0,0,1-.5,1.087,3,3,0,0,1-.73.856,1.7,1.7,0,0,1-1.087.343,2.4,2.4,0,0,1-.878-.141,2.1,2.1,0,0,1-.626-.38Zm7.492-11.632h3.724a4.927,4.927,0,0,1,1.564.216A2.979,2.979,0,0,1-1,404.648a2.091,2.091,0,0,1,.581.827,2.717,2.717,0,0,1,.179.976,1.96,1.96,0,0,1-.171.842,2.607,2.607,0,0,1-.4.626,2.03,2.03,0,0,1-.484.41,1.722,1.722,0,0,1-.432.194,3.388,3.388,0,0,1,.6.223,2.418,2.418,0,0,1,1.013.834,2.3,2.3,0,0,1,.4,1.37A2.843,2.843,0,0,1,0,412.258a2.356,2.356,0,0,1-.774.878,3.413,3.413,0,0,1-1.221.5,7.683,7.683,0,0,1-1.616.156H-7.331Zm3.649,8.206a4.4,4.4,0,0,0,.536-.037,1.592,1.592,0,0,0,.551-.17,1.171,1.171,0,0,0,.426-.387,1.236,1.236,0,0,0,.171-.7,1.185,1.185,0,0,0-.164-.655,1.171,1.171,0,0,0-.417-.395,1.722,1.722,0,0,0-.551-.194,3.161,3.161,0,0,0-.551-.053H-5.141v2.592Zm-.133-4.229a2.115,2.115,0,0,0,.5-.06,1.316,1.316,0,0,0,.432-.186.974.974,0,0,0,.305-.343,1.081,1.081,0,0,0,.119-.529,1.113,1.113,0,0,0-.119-.544.944.944,0,0,0-.313-.343,1.278,1.278,0,0,0-.439-.179,2.3,2.3,0,0,0-.484-.053H-5.141v2.234Zm5.421-1.028H3.752v4.021a1.407,1.407,0,0,0,.29.938,1.061,1.061,0,0,0,.856.343,1.286,1.286,0,0,0,.581-.127,1.369,1.369,0,0,0,.432-.335,1.391,1.391,0,0,0,.268-.491,1.915,1.915,0,0,0,.089-.581v-3.768H8.4v6.985H6.342l-.06-.745a2.616,2.616,0,0,1-.9.663,2.734,2.734,0,0,1-1.17.261,2.546,2.546,0,0,1-1.906-.715,2.907,2.907,0,0,1-.7-2.115Zm8.368-2.949h2.294v1.921H9.975Zm.074,2.949h2.145v6.985H10.05Zm3.783-2.949h2.145v9.934H13.833Zm8.475,9.234a2.663,2.663,0,0,1-.84.647A2.555,2.555,0,0,1,20.3,414a2.874,2.874,0,0,1-1.2-.252,2.82,2.82,0,0,1-.968-.722,3.51,3.51,0,0,1-.648-1.132,4.409,4.409,0,0,1-.239-1.5,3.808,3.808,0,0,1,.335-1.646,3.537,3.537,0,0,1,.864-1.17,3.622,3.622,0,0,1,1.177-.691,3.771,3.771,0,0,1,1.273-.231,3.592,3.592,0,0,1,.789.067,5.724,5.724,0,0,1,.581.171v-3.038h2.13v9.934H22.4Zm-.045-4.364a1.639,1.639,0,0,0-.484-.194,2.961,2.961,0,0,0-.648-.06,1.557,1.557,0,0,0-1.273.551,2.153,2.153,0,0,0-.454,1.415,1.984,1.984,0,0,0,.372,1.244,1.323,1.323,0,0,0,1.117.484,1.4,1.4,0,0,0,.618-.127,1.233,1.233,0,0,0,.679-.827,2.266,2.266,0,0,0,.074-.581Zm3.694-4.87H28.25v1.921H25.956Zm.074,2.949h2.145v6.985H26.031Zm3.8,0h2.055l.06.76a2.449,2.449,0,0,1,.9-.67,2.8,2.8,0,0,1,1.17-.253,2.57,2.57,0,0,1,1.915.715,2.886,2.886,0,0,1,.707,2.115v4.319H34.492v-4.021a1.38,1.38,0,0,0-.29-.923,1,1,0,0,0-.812-.343,1.448,1.448,0,0,0-.626.127,1.321,1.321,0,0,0-.447.335,1.4,1.4,0,0,0-.268.484,1.9,1.9,0,0,0-.089.588v3.753H29.83Zm9.5,7.879a3.852,3.852,0,0,0,.886.395,3.578,3.578,0,0,0,1.035.141,1.62,1.62,0,0,0,1.147-.387,1.51,1.51,0,0,0,.417-1.162v-.493a2.634,2.634,0,0,1-1.787.581,3.434,3.434,0,0,1-1.333-.246,2.726,2.726,0,0,1-.99-.691,3.113,3.113,0,0,1-.619-1.057,4,4,0,0,1-.216-1.34,3.954,3.954,0,0,1,.29-1.543,3.454,3.454,0,0,1,.819-1.192,3.622,3.622,0,0,1,1.266-.767,4.781,4.781,0,0,1,1.646-.268,8.758,8.758,0,0,1,1.646.149,9.445,9.445,0,0,1,1.407.372v6.391a3.2,3.2,0,0,1-.953,2.553,3.861,3.861,0,0,1-2.606.827,6.688,6.688,0,0,1-1.638-.179,4.141,4.141,0,0,1-1.281-.566Zm3.5-6.107a2.559,2.559,0,0,0-.417-.112,3.235,3.235,0,0,0-.551-.037,1.917,1.917,0,0,0-.8.156,1.652,1.652,0,0,0-.916,1.03,2.413,2.413,0,0,0-.112.737,1.852,1.852,0,0,0,.365,1.2,1.3,1.3,0,0,0,1.064.447,1.468,1.468,0,0,0,1.013-.319,1.285,1.285,0,0,0,.357-1.005Zm4.424,3.053a2.751,2.751,0,0,0,.9.521,3.088,3.088,0,0,0,1.08.208,2.248,2.248,0,0,0,.789-.119.452.452,0,0,0,.313-.462.467.467,0,0,0-.067-.246.62.62,0,0,0-.246-.208,3.088,3.088,0,0,0-.5-.2q-.319-.1-.812-.239a5.459,5.459,0,0,1-.8-.276,2.9,2.9,0,0,1-.7-.426,1.968,1.968,0,0,1-.492-.612,1.785,1.785,0,0,1-.186-.834,1.767,1.767,0,0,1,.223-.886,2.184,2.184,0,0,1,.618-.685,2.93,2.93,0,0,1,.938-.447,4.2,4.2,0,0,1,1.17-.156,5.448,5.448,0,0,1,1.564.2,4.418,4.418,0,0,1,1.236.588l-.909,1.415a4.594,4.594,0,0,0-.782-.4,2.607,2.607,0,0,0-.99-.179,1.379,1.379,0,0,0-.715.142.432.432,0,0,0-.223.38q0,.342.462.505t1.25.372a3.291,3.291,0,0,1,1.556.819,1.954,1.954,0,0,1,.484,1.39,1.844,1.844,0,0,1-.261,1,2.171,2.171,0,0,1-.7.692,3.328,3.328,0,0,1-1,.41,4.875,4.875,0,0,1-1.139.133,6.076,6.076,0,0,1-1.772-.253A3.185,3.185,0,0,1,46.2,413Z" transform="translate(27.229 -403.857)" fill="#919191"/></g><g transform="translate(39.679 332.493)"><path d="M278.059,404.2h.675l.71,1.156.711-1.156h.7l.108,2.75h-.726l-.057-1.616-.56.948h-.352l-.56-.912-.05,1.58h-.7Zm-2,.667h-.89V404.2h2.564v.668h-.891v2.082h-.782Z" transform="translate(-275.165 -404.203)" fill="#919191"/></g><g transform="translate(-45.645 306.51)"><path d="M-44.581,346.51h-1.064V313.053l3.095-1.712h3.28l3.138,1.709v15.492l1.371-.541v-3.2l1.514-.962v-2h5.565v2.721h2.354L-23,321.837h6.1V323.6h1.35v4.514l.576-1.773h3.005v-4.5h6.686l1.977,1.3v-5.8l3.4-3.134,3.438,3.132v5.307l1.543,1V308.317l6.087-1.807,2.873,2.319v14.379h3.824v1.35H19.1v-3.774h5.238l1.174,1.174H26.5l1.883-1.884,4.328,4.327v4.392H47.5v1.064H31.649v-5.015l-3.264-3.264-1.443,1.443H25.069L23.9,321.848H20.162v3.774H16.79v-1.35H12.966V309.338l-2.042-1.648-4.79,1.422V325.6l-3.67-2.382V317.8L.094,315.646-2.242,317.8v7.314L-5.6,322.9h-5.3v4.5h-3.3l-.8,2.455h-1.615v-5.2h-1.35V322.9h-4.543l-2.332,2.721h-3.907V322.9h-3.437v1.52l-1.514.962v3.343l-3.5,1.382V313.683l-2.345-1.277h-2.735l-2.306,1.275Z" transform="translate(45.645 -306.51)" fill="#919191"/></g></g></svg>